<svg width="144" height="144" viewBox="0 0 144 144" fill="none" xmlns="http://www.w3.org/2000/svg">
<rect width="144" height="144" fill="white"/>
<path d="M71.864 77.48C70.072 85.768 64.304 90.304 55.792 90.304C47.56 90.304 39.048 85.376 39.048 71.32C39.048 57.712 47.56 52.336 55.792 52.336C62.344 52.336 69.176 55.528 71.584 64.096H76.288C73.936 53.848 66.432 47.744 55.792 47.744C49.856 47.744 44.536 49.872 40.728 53.736C36.64 57.936 34.456 64.04 34.456 71.32C34.456 85.656 42.8 94.896 55.792 94.896C64.752 94.896 74.272 90.192 76.568 77.48H71.864ZM94.5344 94.896C101.198 94.392 107.974 90.64 107.974 78.768C107.974 70.928 102.878 65.048 94.7584 65.048C87.5344 65.048 85.6304 68.464 85.6304 68.464V53.232H106.462V48.64H81.3184V74.232H85.6864C86.1904 71.768 88.3184 69.248 94.3104 69.304C100.358 69.36 103.662 73.224 103.662 78.768C103.662 85.656 100.414 90.08 93.9744 90.248C87.5344 90.472 84.9024 86.328 84.9024 83.864H80.0864C80.0864 91.032 87.5344 95.4 94.5344 94.896Z" fill="black"/>
</svg>
